<mxfile host="Electron" modified="2023-11-10T18:21:34.243Z" agent="Mozilla/5.0 (Windows NT 10.0; Win64; x64) AppleWebKit/537.36 (KHTML, like Gecko) draw.io/22.0.3 Chrome/114.0.5735.289 Electron/25.8.4 Safari/537.36" etag="3OIRJ-TDRP_eyJtYF-BR" version="22.0.3" type="device">
  <diagram name="Page-1" id="uXvC0gGedchqww5eWR_O">
    <mxGraphModel dx="1338" dy="770" grid="1" gridSize="10" guides="1" tooltips="1" connect="1" arrows="1" fold="1" page="1" pageScale="1" pageWidth="850" pageHeight="1100" math="0" shadow="0">
      <root>
        <mxCell id="0" />
        <mxCell id="1" parent="0" />
        <mxCell id="_jDFj12-EfxpkDhz6urm-2" value="" style="rounded=1;whiteSpace=wrap;html=1;" vertex="1" parent="1">
          <mxGeometry x="60" y="30" width="440" height="560" as="geometry" />
        </mxCell>
        <mxCell id="_jDFj12-EfxpkDhz6urm-1" value="" style="image;sketch=0;aspect=fixed;html=1;points=[];align=center;fontSize=12;image=img/lib/mscae/OpenShift.svg;" vertex="1" parent="1">
          <mxGeometry x="235" y="44" width="50" height="46" as="geometry" />
        </mxCell>
        <mxCell id="_jDFj12-EfxpkDhz6urm-3" value="" style="shadow=0;dashed=0;html=1;strokeColor=none;fillColor=#4495D1;labelPosition=center;verticalLabelPosition=bottom;verticalAlign=top;align=center;outlineConnect=0;shape=mxgraph.veeam.2d.web_ui;" vertex="1" parent="1">
          <mxGeometry x="237.6" y="130" width="44.8" height="44.8" as="geometry" />
        </mxCell>
        <mxCell id="_jDFj12-EfxpkDhz6urm-4" value="Alerting Frontend" style="text;html=1;strokeColor=none;fillColor=none;align=center;verticalAlign=middle;whiteSpace=wrap;rounded=0;" vertex="1" parent="1">
          <mxGeometry x="230" y="180" width="60" height="30" as="geometry" />
        </mxCell>
        <mxCell id="_jDFj12-EfxpkDhz6urm-5" value="" style="sketch=0;html=1;dashed=0;whitespace=wrap;fillColor=#2875E2;strokeColor=#ffffff;points=[[0.005,0.63,0],[0.1,0.2,0],[0.9,0.2,0],[0.5,0,0],[0.995,0.63,0],[0.72,0.99,0],[0.5,1,0],[0.28,0.99,0]];verticalLabelPosition=bottom;align=center;verticalAlign=top;shape=mxgraph.kubernetes.icon;prIcon=api;movable=1;resizable=1;rotatable=1;deletable=1;editable=1;locked=0;connectable=1;" vertex="1" parent="1">
          <mxGeometry x="149.8" y="250" width="50" height="48" as="geometry" />
        </mxCell>
        <mxCell id="_jDFj12-EfxpkDhz6urm-6" value="REST Api" style="text;html=1;strokeColor=none;fillColor=none;align=center;verticalAlign=middle;whiteSpace=wrap;rounded=0;movable=1;resizable=1;rotatable=1;deletable=1;editable=1;locked=0;connectable=1;" vertex="1" parent="1">
          <mxGeometry x="144.8" y="303" width="60" height="30" as="geometry" />
        </mxCell>
        <mxCell id="_jDFj12-EfxpkDhz6urm-8" value="Database (probably postgres)" style="text;html=1;strokeColor=none;fillColor=none;align=center;verticalAlign=middle;whiteSpace=wrap;rounded=0;" vertex="1" parent="1">
          <mxGeometry x="330" y="313" width="60" height="30" as="geometry" />
        </mxCell>
        <mxCell id="_jDFj12-EfxpkDhz6urm-9" value="" style="outlineConnect=0;dashed=0;verticalLabelPosition=bottom;verticalAlign=top;align=center;html=1;shape=mxgraph.aws3.postgre_sql_instance;fillColor=#2E73B8;gradientColor=none;" vertex="1" parent="1">
          <mxGeometry x="337.5" y="250" width="45" height="50" as="geometry" />
        </mxCell>
        <mxCell id="_jDFj12-EfxpkDhz6urm-11" value="" style="shape=image;verticalLabelPosition=bottom;labelBackgroundColor=default;verticalAlign=top;aspect=fixed;imageAspect=0;image=data:image/png,iVBORw0KGgoAAAANSUhEUgAAAMgAAADICAYAAACtWK6eAAAouElEQVR4nOydC3hcVbn3/3uumcn9nqZN6CVtUqAcBFQwUfEcKQfxCz2oSPBysFQsKN/x02MrgujHd1AL4uWhYNW2Hg5IQD3aRlEoAnrIiKJgocUmvXeSNm0ySXOf2758z5pm1+l0Lnu/a8/sSbp/zzNP2zR773f23v/1rvWud73LoSgKLCwskmMz2wALi3zGEoiFRRosgVhYpMESiIVFGiyBWFikwRKIhUUaLIFYWKTBEoiFRRosgVhYpMESiIVFGiyBWFikwRKIhUUaLIFYWKTBEoiFRRosgVhYpMESiIVFGiyBWFikwWG2AUYTCASEnp6e9wIoM9uWc4xIS0vLs1VVVSGzDTGSOSeQLVu23OLz+X5oth3nIq2trd9Yv379nWbbYSRzqovl9/u9Pp/vC2bbca7i8/nWdnd3LzTbDiOZUwLZtGnT/wWwzGw7zmHK7r///h+ZbYSRzBmBbNu27R927979f8y2wwJXbt68+TqzjTCKOSOQ55577i4AdrPtsAC6urq+bLYNRjEnBNLd3d3S19f3L2bbYXGaS7dt23aV2UYYwZwQyJYtW74zFyNys5mtW7d+1+/3O822g5dZL5DOzs73Dw8PX222HRZnsXzTpk1fMtsIXma1QHp6eio7OzutOY88Zffu3V9i3V+z7eBhVgtk+/btnwFQZ7YdFilxdXZ2zmovMmsF0t3dXefz+W432w6L9PT19d3Q3d19idl2UBFma3X39vb2XwBYZbYdFprYv3HjxvMbGxujZhuil1npQWZCiJY4Zg9NO3bs+ITZRlCYlQLZunXrrO7Xnot0dXXduWvXrlkXip91AtmwYcNNAK402w4L3SzctGnTN8w2Qi+zSiDd3d0tPp9vTiXDnUv09fV9frbNsM8qgcyEDF1m22FBZ+vWrbMqT2vWCKS7u/uSvr6+G8y2w4Kbd850k2cFs0Igfr/fef/99z8FwG22LRb8+Hy+LX6/v8JsO7QwKwQyEyJsMtsOC8MoeOihh9aZbYQW8l4gfr/f1tXVNafWOVsAvb29n/H7/cVm25GJvBfIjh07PgJgTq1ztohR2NnZ+VmzjchEXgvE7/eXdXV1fd1sOyyyg8/nW9/d3X2+2XakI69zsdrb2x8D8FGz7bDIKjs3btx4aWNjo2y2IcnIWw+ybdu2Nksc5wQX79ixo8NsI1KRtwKZKcJgcQ7Q1dV1t9k2pCIvu1gbNmy4zufz/dwMAYs2O8aLKiAL+i9tU2SUTI7AIUtZsS0Tit2BaF0jFDthKbgiw3ncD1s0nA3TMtLQ0HDXww8//DVTLp6GvMuu9Pv9xT6f7z/N8m5vLL0cR2sWk4+vcwBvffExQ23Syp53fgilb38PBBvt1rkOvYmqJ79tuF1a6Ovru6+7u/unbW1t+0wxIAV518WaCf2ZUng6UFqLY9X0iLJQUo7jyy/HsSW5X0A3UrcYB1uuQCBC916Rhecj2HKZoXbpYfv27V807eIpyCuB7Nq1q8zn833OjGtLgh2vtbwTCqFrdZqaBYAg4PX33ISoy2OkeWmRbXa8evUtsS7W8bAEyMSAkCBg9NqbIbtzZ3s8vb29/9rZ2ZlXRR7yRiCBQEDYtGnTZrO8x+F5yxDmeKlt5dVQvEWxv4tuLw7+wz8aaF16Dl/4ToSKymN/jwg29IVE8rkUVwEm32ZaFSV7Z2fnU4FAoMAsAxLJG4Fs27bto319fR8w49phhxt7z7uIfLzg9kBuODNVbP8lV2G8ot4A69ITLCrH3rdee8bPBkVgPEJf/j15+dUQSysNsI7ERVu2bPm8WRdPJG8E0tXVZdoy2sP1zRAdHMtMahec9SPZ4cJrK1dDEQQ+4zKw8x8/hmhB4Vk/HwhzzLs5nJh820o+wzjw+Xz/7vf7vaYZEEdeCGTz5s0fAmBK3zPkLMCh+mby8YK3GEqK1naish79y97GYV16ji9cgUBD8ts2qQgYCdFDtsGLWhGtMK3kWFlnZ+dtZl08nrwQiJne4/WlVyDqpHV5mW9QFrXEBrep2HfZNRzWpWffpf+c9v8PRwSIIi2qxcYio+1riJbxw7zIrl27TB+LmC6QDRs2/BuAi8249onyegxWnt090kzVPMCefippqqwGvQljBCM4cn4rRusWpf0dhX3HCH3AHp23ENPnv518PCd1mzZt+p5ZF1cxVSDd3d0NPp/vm2Zdf3/DheRjBShQauZr+t29b7sWk6XV5GslEvKWYNe7b9T0uydEAZJIF8nkO4wXt1b6+vpufuKJJ95hmgFmC2T79u3rzZrN76tZjJHSWvoJFjTFBrNaydQd0sP+S1ZCsWnbK4h5kYNBCYpCG7SL1fWYuCJ73cRMPPfcc6bWQDNNIJ2dnU29vb2fNOPaYac7llJCRfAUQqmo0XVMf8vbYyFZXiLuQhy54J26jhlXBIxxdLUmrvwAxDLjPKAehoeHr+3s7DSuddGJKQIJBALuzs7Ox8wq4XNg/gWx2WcyScK6GRFs2HcJf+j0wMX/BFmH51IZiCgAR2Lq5BXvIx/LS2dn5+aenh5TJmZMyeZ94YUX7pyYmMhZ5qYk/T2S89eRKXxt2EkWiKOqFmI9LZmxRg7je8HXSceqfNFzAfbZzp730EKdU8B8D3HTJ0XBNf5X8BZXFKIoQpZl2O3GbAnJ3kE5c3rMUdZTZdc26rqZqKqqCuZcIAMDA6UTExNHPR4P7SnrhN34aDQau6lRWcZVz74J/xRtfsDuckNqoSci3lIm4a4avoVzDw/b8OAw/QW5oNCBAjut4+CBjI1lo/AQj0+FqCOIoEFIhpLzLtbo6OjPciUOzHgPtcV58mCALA6GoDFqlQyPoGB1Of/D/ViZjDIbvVE7zpHtG4QNz4SNS2RkjbMecWCuC2T//v3vLygoeG+urhd/8yVFwabeAfK5bE4nxHJ9A/N4/qVExjwDtrQssQMfLaO/JMNRBRGOl+zpUAEiBnU64ru+Wsl1jyenAgmHwzlbRstaGvYRZma5f3FkGANBegKfUD0/7Yx5Opj3uLXCuJaPeZEqO/1FOcGRpzWtCNgR4i9wSREHw+l0ko+lkDOBHDx48OaysrLLXS5XTloBJg5b3Mq6R3ro3iM29qikz5l8tlJGo4EbIlc7gK/W0F+SwagcG49ReTro5vIizLPzvANClhNA48mJQAYHBxskSdqo/ltvv1MvrIWJfwDf2n0UhydpYw+bIEBpaIqFaSmc7zZm7JHI+4oVvMNDP++BaZEc9h1TbPjRFG0sYkTrn8tuVk4EMjIy8oDX6z09MHc4sjd5zjwHE6DayvxxcBwbObwHKmshF5aQD/9KtQR7lhq8e2okOEB7WaZknFp9SOT3YTdeCetzi2p4mJdcdrOyLhC/37/U6/WesW1BNj1IfNQKvF0rmwBwRK6uL5HxVm/2WrtlbuBTHGObgYgMgaM1/nlQ+1hEfeZGdY9sxMIUuq+T7QtMTEx80W4/sw1lLUA2SOzbPt03At/gBPl8Qv2i2MInCjV2BfdUZ7+V+0yFjCVO2kvOpHUgKM5kbOnHLznwTDDz/eEdc5hJVgUyODjYXFRUdHPiz7PhQdgDYN5DbVnGIyK+9NoR4qMHHN4iiBX0gTkbd5TkYMLXbQM+WUEX4klRwaRI90KPT3swIqX2CkZ7DpVcCS5rApmamnL19/c/5XA4zrpGNlIFElMQtuw7gYko/cXRmsqejPkOBTeW5m5C67piBRe46S/MsbAcS9+nwI7cHky+rimbnoONY3MxDsmaQAKBwMdra2v/Idn/xdI+osbtKa/Oeagw77F13wny+ZxFpZBK6BsgPVAn5cR7qDAv8tA8kfwwJyQFY1G6oF8IuzAknXn1bHmOeHKRk5UVgZw8edIpy/IXsnHuZMQPzGVFwedeOYQpYrdBsNshNywh27KyUMblWRyYp2KhC/gQh9c6FJIgyjS7JQh4aNKL6MzhiWH2bJGLtJOsCGTfvn33ulyuZel+x+UyJtM9cTzz0olxvHB8jHw+obIOkpM+U/zpSnPq8jJur5DID1RUgCGOPK39ogOvRJxnZTBkk1yI0HCBjI2NnV9TU5PRe4TD/EWSkz2Mh/dw5Fs5HFAq6ZU83uWVscLEMgN1iOJ9hfSu62BUhsjRKm+fdiMiSTmb6c7FfIjhAjl8+PAjTqczY+ewoKCAuwVg3iM+Hv7A7n78ZXiSdC4be6jnNUNx0jybAwruzkFYNxnsPkQikdjf11VEUUzM9mVeZP80fWDdLzuwNZjbbQezLUZDBbJnz54PVlVVvVvr7/MM1ONnyxkHxoP4Xs9x8vlQWsE1Y/6/K2U05XiTavYiM0/M/lTvRa0D+FJFhHzOKRkY5oj+dUcL0Cvm3aYBZAwTSCAQqBME4ft6jqFOGCbrWvGkk8TOwhHWbXIpXDPaFFgDwRqYZDPK1xdLeIub/pIfD8tcy3O7wrkripjtcK9hAhkeHv5McXGxrtgo9YvFTwgy+qbC+KV/hHQuhr20HHKS8p1aWVsuwZm7BNNYdyreayTj9jK6dw4rwAhH2HeX6MIRMXdx7mymnRhy5tHRUdb83q73OEocO1kI8ZGeAVAfJ3vF5Gq697i4QMG1xbkJ6zKvycShpd/d5pHxLg89Y+F4RCJPHjK25dCLZBNDBLJz584tbre7PNsRhcR0EsbhyRB+eihAPqezshaylzawZAPzb9WJsYm6bMO6U5KOCJFNAB6siaBQoL3kQRk4wZHt+6roxt4cjUWyGe7lfrSHDh26ZvHixVezl5a1cHpEoveLJUatwpKMO/54kOw9bE4XonXnEY8GbixVYhN02YTdU2pIvMQGfLyE7kX6wzIiEr2rtWm6GFNy9vuebBySrQxxboFEo9F7Tp9Mp0j0rAth500U1Hb/MN4cndZj7hnYauqhENMV2FFrOZIEtcAeemKjoJfVZVF4iV7kVG1f+ncMKHb8TzQ3E0PZyhDnEsj+/fvf7Xa7zyhRqFckWlpHJozEiA3zHj/cS8+3srkLIJbRizDcWS2hPjvPJHbv2PfNNBDXAvMiX6uKkMcTQ1EFIQ4v8ptwAaaU7HuRvPMgfr/fJknSQ8keIHuR1Zc6E2535smDZMXC/v3Ph3BgIqTT6lMINjuwsAUgeo93eaWsLKNV75nROUbXFEm4tpC4DQKAfdMiOU9rVLHju1MlkLIcx8jGrHpsvEs9+MiRI3d6PJ4Vqf6fCYcJJZNIQqH0L3myrtUfh8bxdP9JvSb/3baKaq6NKteWGd9aqV4jW/CEfSOceVo9khOvRbNfZdbIWXV1ro0kkOHh4aV1dXX3aPldZnQ6ZXs86V/UxKgVYyNHvlXME1XR9w68vkTC5UU2Q106E0ZiZoDRLHEp+FQpXSRDURkS0YswfhL0ZN2LGHX/1LoGoHaxmPdwu92amgRmdLoxCfv/VC9bsp//un8Ef+BYRmubdx5kFy0npMKu4L6Z0qFGPAx1XgNZnOxi3pd5aXad270TWGCneYKoAhzh2D33T9PAU5Om1CrXTXw4XfdT6e/vv7i4uPgmPcdkGrgneznU349/EYdCUXz1r369Jp/G4S1ClKM64qfK5dNzHswTUfu86ljDaK+hlvJk52YfJgy1LjG7Dvvz1mJ6FvVJUcEEYUu3kChhWFTw4JgbR8XsLqDi9eyJx+sWyPHjx590axlZJ6AO3LUOQBOrkzAeOzCIQJhjD/AaenXEYpuCjySU/KS83GoxberxiahimJ6ePh35UlGFEc91hVFU2+hBAL2lggRFwb7gqWNCioCt49nN6ORZZZh4/6BXIL29vWtqamrIW8Kq3a1EkSQalawVYN7j8QOD1EvD7vFCKqZvYHNLuQxvkrulJ+KkzmtQhcEaDfZh3SXVQ6g4nU5N57ULwBoOLzIuAdM6vMhgRDqjCuO2aScORk3fGvMskgWDoEcgo6OjFbIs/z9eQ5KNSeK7WMkydcOSjJtf2otRjkiKUr+Q7D2aXQpuTRLWZXZr6WapL7WeeQ21yFq8GBLvDbW1vLEogsvcdE98JKQtTysiKzgWOfO+MS9yW8CLsSyN2CldX/b7qRouzQIZGBj4QWFhoSEbZ6uGqF8kvhVOFrXa7h/GnrEg+Xqu8irIhaWkY5klG+tFFKS4U5ni7+q8hhZhMDGEw+GYGNS8M14xJIN5kW9WTMNFnDycloGAhq6WPxiNLcJKpF+04SdjNkNWlRpBuuejSSAHDx58j8fj+YDRhqkvAXvJ1L8nurmoLOP7vfSFUILDGdvOmMr1JTKWEIIv6XKo1HFI4mBanTvKRbWOKruCjiL6wqojGfK0xqMSxtJoqDPoRVg4JRI1YGFU0qHWiKCWPDdNZwqFQvdkIwwZ70nUbNXE6zxzdBSHiIWnY9eoqoNC2NNP5TZCvlWyHCr1Z5OTk2d5nFxtKZbIzcVhshfJlKd1LIOHOSHb0TXtPn2PmDjU7iQvWruxiTsAJCPjW79r164rvF7vldrN0098eJIpWv1MhcLYxLFS0OZ0cRVh+HylhEUavIcaXoz3DOzvqmdQu0zsQwgAZo1qu4K7y+hd11R5WhOiFFu6m4n/mvYgGKdP9WVVvQo15YadJ1O4lzVSWs6fUSA2m+3L2ZzEmp6extTU1OmFQPGfHx0Y4hp72BqWQLHT1iQscspYWxY9fSOTfYLBYMx+9mH2s3+rYojf5NIsD6GF64uiuNhFG7Czd/tQktq+WkPBRyU7Hpo4e2GV+r7FByf0ks6L6ClNlPbN7+npucbj8Vyt27o0qP0+9sXZi6VOYCWmvh+eDOMRjmxdR0k5xKIy8vFrSyOnw6pq9yjxo9rN/lS7B7nc3MUoeMK+bMA+EhepYmOPcR290ienC7AnmrwBUcdjas9CzziFHZfsd+PTSLSQUiAnT570SpL0RLLauhTYl2SegrWyasw53jMl9su37B9CiCMUqNTQ861aXBLeryP7VZ2tVm9+NpMOs8GVHhGtbrrN6vJcWZFPTwpqRYaArRk242HviTrRrEb6MglFzd5IRM+qTGQQyKeKi4vpTfDMi8O+DPMU6qA1VXctPlx6IhhFF0e2rquyBpKXVsKHPegHqsKaN72Jzw5Qvx97AOxB5nIvPV7urQjCzbk8l7r34fMhF/al8CKJqPdY9djp7nGiEChpKIYuGlYH26orVA3U2+0Q2UtHtMFWWoGaRUtRW0D7akwgZfaQ5j0zWFcxmejVFox9WDcs37tebkmEbc+rADFj91hlHaTaBtKxykwypB7Ue656bVU4qcZ7FK+edj1IeXn59ycmJka1nEjNGJ2cnOSq6q0eO9/rwtXzaBN7qFmA/ohM3upYgYDvT2mryJEYyk1szdRgw2zwJl//2wCCkSj7Uro/NkGAXLuAfO0rXFGc76LfH/UZqBUm1fdIHddmKqatBlzU49WgUSaBTDudzptEMXmZdLU/qEZy2L959x5UJwwZty6thkOnyOxVdZA9p+pb8ey/t0d04i+RzHMnia2Sy+VK2u+NH5/kI68MT+HpY+Pk45Xq+bGGhcqaInqkMh61exufrxb/UcPw6oCfvbvq39VnhIT17WkH4MuWLftNMBh8Nv5n7GRqaFNtFY0KA8fHr5eVeLCmqVr7sU7XqXyrGQJRhasixy9SbAqjkqqqYaqWSvWo+ehNfrifXjZJcLpiFfGp/K+CEC4hhplTES+U+Pc0vuuvhuEz9XQyvtlut/s+9lDVsGx8SkQ2iO9D3rasBgsLteV5KNX1sYjI6X8DOBgUY/uFUDgsOfDbUPJrq2MtCurYJFlqtRk8NzCOPw5P0Q4WBNjPWwqZOL6qtklYV0KvSpMKdSqBfZg42J/kScdMv9DU1OQLBoO/M6LChhbiv4jbbsOapswLnGwOZ9JWbErmK6H56LQ36f57qbwHNHpTdWySjQINehiPSrhn1zH6Po5llRCJ0ULGR7whciX6VMRPLqpeRL3XFDS5gYKCgnvNepDtC8pQ78kwHqiel7IVOxGRIBFbauaRfhk6s6uVadGXnvukdinNGps8dmgYExwbeDKvTaXcJuN6r3HZvEwA6kA7viFXGyz2M4on0SSQpUuXviiK4i/0Gk0hsQV22W34xJLUY5GY96ial/L/QzIwxDFgfz7sxkhcdcBMtXEdDodukcCEsQnzHv91iF7w21E7HxJHwe8bvSGUGOA91Jy3VI1M/PtE8SSaBxILFixYMzU1xbEBhzbUSaB4PthYgUVFyZP8WB9YEtJ/jWMRGUFiSylBwMbJwti6hmSrIZNB8bbq2CQX3oSNy+564ximiEEMm7sASg09rFtpk3GDl1bTTEWNoqq5b8lIJga9nkSzQMrLy0c8Hs9XtP4+D4nhYo/Dhu+/fSGKErJeHFW1iGpYCKXE6szSW+de0YnnQu60Y48zrkfs0qmeSR1cZouu/jG8eIJeGUaoX5ixUUqFEwoeKh9HOdF7xAtDb9qIilpJR8tz0vUtly9f/oOhoaFe3RbpJFkr2ljoxvWN8duPCLq2LRiXFPLOtww2FtFaF4p3g1J12Wi2crp+cGCIfKyNc23/+zxhnO+k7wujCkMLmbKotdxf3c1AY2PjjZFIJKtrJdkLluwmfGJJFYpnvIhj/nmQde5GyzN5OKbY8JKkfc8LXg+QrZyuZwfG4J+mC0/g2InLAQX/6tU/KaiGahO73lqOy4RaKyAVFIHsDAaDT+g9zgjmeVxYd8G8WCsmVqYemKdiVFIwSajrpPJ0tEhzdUCjQuLxWaxGsIljUtBRWAyptIp8/KeKgljs1OfF2fdmH8q4TmvDks6TkDqSS5Ys+UY4HDbmiaUglapZN+viJYvI5z0clMglNIcVO34Wye0uripq8IIn3P6fBwPYN0F0/jYb5IYm8rUX20XcXKjde6jzGTzeU0/qUypPQhJIZWXl3vHx8fsox2ol1ZezCwLW1NH7+GEFGOTYxfVZsRB9cuYbn415I3XehPLSDASj+HYvva6Yo7IWsou+18ctRUHN+zjqXRxlFMk8CTlfpK2t7d5wOLyL16hUpHN7V3oktHHsvzcYkcnl/BlPRzLH//XOh2hFrcWlroHXyg/2D5GLRws2O+Q0c02ZWOGM4qqCzB0ONfnVqPtGCXIkpgBxJVR5PJ5/y5bK09WbsgnAd6rDqLfTbqSoAAeCUXKe1iuSBy+L6VtTNgbJ1r1RQ81ahfKHoUn8d7+mlQtJcSxq1h0QUamwyfh22QRcabyHOgtudGibki+o1k1Wnx2XQGZm2F/mOUc60r1gRTbgExzl/CclYJQjT+tH4VJMZtg5Kdsz42ogIF23KyjKWLfzKHUdFOylFZrmmlLxYW8oVoMrGWpmeNZ2h+JIqFXHJNwpuR6Ph7scaSoytcDXF4k4z0F/yU9E0i+kSYcIAc9E03e14te3ZBO125UsQ/jHR4YxyjHmAkdYN9WMuVpSVeuW1hR4qzaqaSncAlmyZMlv+vr6nuU9TzIyTfQU2oBvVvNV5ODZOem30UJMKKlvodbavUagzpvEiyQsyXiUI9/KXlULyVNEPv7e0smzZszjo1PZzA43rEqjESe57LLLVgeDQXqVhRRo2cJthVvG+7x0F300LMdeJAoRCPhBqDRt9yVb62bSXU8t5fnlN47hJLEBEFwuKBxbZL/DFTmjUgqzR00qzMWyCaN2vTXk6ZWVlR1zOBzfM+JciWj5oreV0adk5JmyNVTelN3YKeVPtUTMiOTVkWn8eoC+jFaoqodsoxe8u2VmzoO15GwAnusFYkaNawxr3mpqah6anJyk+/MUaPmiS10K/onDi5yMKrFS/VR+HS1M6UXMWjW4maNrJbCxUwV9J65LnRFc4oqeTio0g3wUyHGv13u7UedT0dpF4dmgkvmPQY6dqw7KLrwkJi9+xlvIgsLvhybx8jB9KatQWQeFw3us9k5zz4LzwpswqmJoB3n58uVPjY+Pv2jkObW2wBe5ZXy4mC6SAOeG+U9FijEsJ7+duay0yMYc975JL9lqd7mBKnoRhve6w7gYk6YuJTbSaxs+gmxqavpMNMoTVzwTPRsz3lMRwXJifSV21P5pkZynFYINP02Rp5XLonEP7w9gmDqmYt56UQtkG83rNdgl3O0Zie1LaGZBCiMbJMMFUl5e/rfJyckHjTyn1m6KXQBu5ehqhRXmSejafkXy4Lh8dtckV9XdA2ER246OkY93VNRAcmtP6U/kYwWTcMmnGjMzBWLk/c5KDHLZsmV3i6K416jz6RlwrfRKuNRNf8lPRGRykQfMDNgT0bJfhRE8engk6ZZnmrDZoHDkWzU5RFxl+/sqRZ5tsnkx0mNnRSAVFRXRgoKC+406n54WgXmR79SE4SIWYo4qwDGODfN9ogcDSbJ9s+1FmPd4qo/uPZzzGiERs3VtUPAVd+Cs4tdmjUPyuoulUltb+9jQ0NBfjTiX3htdbVdwYzFHtm9UwRRxYZUCAY+ESs/Y+hhZflmYx1v/xgA5VC3EFqDRB+bXOKexxH72S8m6xmZ4kbz3IIyioqLI0qVLO1LV9tWDuomKHj5ZEiV7EXAuzz2qOPFyirBvNnhxcBKvnqTXtxU4a+t+3J16QtKMsUjej0FUamtre8Ph8I+MOJfelI1qh4K7K+gz7GOSgjGOAfsz0UKElbMLmBkN8x6bD9InBW2FJVBKK8nH3+oeQ4Mttbc2Y9sHI8d7WU8UKi8v3yBJ/LvGU770DcUiLiYO2FmL6g+J5AH7CcWBrrgBu5a8Mgo/7RtFD3UZrSDAdt5SKMSXuFGI4uY03gM5DFDEY2R3NusCWbRo0b5oNPok73lcLhfJXfPMsEcUgasq445oIfzS3wfsRg/U+6ej+M5eehEGe1UdRAd9xjmTOOLJZVdr1nSxVOrr678QDAaJJcRPoRYi1st7vBI6OGbYj0dk8gy7BAGdWSzy8K29gwgRB+Z2lxsKx6Y373FMY6VTWzpLLkO+Wnev1UpOBFJdXX3U6/Xeynse6he/qyKCGuLyXClWCUUEtQHsld3408zyXCNd/2snp/HCIL3NERqbyDPmRZDxRc9IbOmz5uvlaCxiVHkklZwtVli2bNkTU1NTf8jV9eJxcM6wT8ngWpX3RLgEo7LNsEIO41EJd+2il0m2l1ZwbVtwg/0kinVGCKk9AL0Y3Y3N6Woej8fzdZ7jeV6uDxeLqOCoJn6MYywyARueF72GvSTbjo5hgGMyk2cZbQFkfNA5rjvgkM0iFvEYHS3MqUCWL1/+q4mJid9Qj+dJHXcKwMeL6GsTQgq4wr4vRr2xIg+8XY2gJOOxI/TFm7biUq5ltDc4J+ASI7rLDiHN3uVGMmu7WCr19fUdoVCI1HlmL1cwSJsQYw/mhoLpWCEBKgMcXmQaNrwQ9XK3cF1Hx7kiawLHtgUuKLjRPXGq2ofNprswQi68iNHnz/lqnvr6+rHdu3ffNzo6+rVcXlfdCvimiBMba98OhfCisrHIUCiK6gLaeufukBOL/XtObS9MFMrPhulhWVt5FaRC+tjjQ/6XMWCfjAlD7eur+5NrRRUXgaMA9mX6JSPHOZWVlUHBjFSAQCDgXr169e8AXJ7ziwN4410fxpEV76YdrCho9tpR5NTftnh2v4zyX26hXXeG3Ysvw6H5y/Uf6CoAll0EEFcK1u/9My59zpCkCArH77///otaWlro+zYQyXkXi1FVVRXu6Oj4WKwwiAksfW0HBJnY0ggCThAHyEW+p2nXjKOpbzcoMWehpp4sDsTuWVYqO2mio6Pjk2aIA2YJBKe+9P7m5uYfmnFtz+RJnO/7Ofn4UVnAWESfSAp6X4NzhH8Hu4JoCI3HM/Y0zkAo8EApo29bsOS1Z1EyfIx8PA+VlZXPdnR0/MqUi5spEMZ11123IVak0AQWv/EiSob6aAcLAg5PR3XlaRX5jHvGTf1vQlA0BhsEAWhcSvYenvFhtPzxl6RjjeCqq67K6i4CmTBVIG1tbX2tra2fM+v6S/9CjjhDtNljA3YteP/yPFwn/ORrJVIYmkTz4Z2aflcoq4TCsRvt0lefgU2rGA2moaHhxzfddNNLplx8BlMFwli/fv1DALQ9bYOpP7gTFQMHyMefiMgZK8TbJkZR+vxT5GukYmn/myiaylSxXQA4wrresUE07jEl+YExuHbt2jVmXVzFdIEw2tvb/8Osa1/820fhiNDmVkTBhiNT6ecCil7+NYQsTY4t60u/PYtQtwCKm7ZwyyZFcdkzm2MVSsygtbX1wRUrVphTdS6OvBDImjVr/htAjxnXLhwPoPFvPvLxI7INEykG7PaxAAr/+nsO69Izf+gwSieGk/6fwLmX+fzeP6M00M9hHRfjHR0dG826eDx5IRCc8iI5nTiMZ/HrL8AepVeJP54s7CuJKO/6IT2crJFLerthl5KMhTjEIUgiluz8LZ9hHDQ3N3+rsbGRXhrSQPJGIKtWrXq8oaHhp2Zc2zM5iiWvPUc+fhw2nJg+U2CFbGDeTx/faKUoOH5qbiQOobQCSnk1+ZwLd/8Pik/yh6SJvLF+/foHzLp4InkjkKqqKmXt2rW3AqDvFcbBktefhyNMb7SORhVE1KWlYhRFf8rdxNrio3vgEGfmXO12YMES8rmYx2t6bYdxxulD6ujo+EhVVVVeeA/kk0AYK1asGG1tbf2WGdd2RMN4y28fJc1SMxTBhoHwqcF46bOPwz5F33pALw5ZwiU9L8VsF6rqodjpKXYrfv8kCqZzZ3s8zc3Nj3d0dOw25eIpyCuB4NQM+3fM8iJ1h3eh5sib5OMDogLh0N9Q+AZ90E+l9uQx1I/0cxWeLh84gPM4Aha8XHfddaZOCiYj97X5M9DY2DjR2tp6s88XywXJuYDf8vyjGJ7XRCr/L8giKjnmVXi5aN/LmD89DNmuP9tYUGRUHNufFbu00NDQ8NW2tjZ9OTQ5wJRsXi18+tOf/k1fX98/m22HRU7Y29XV1Wy2EcnIuy6Witk5OBa5w8yJ4kzkrUBWrVrVDeBxs+2wyDq7V65c+WOzjUhF3gqEsXHjxjtmVpJZzE2m1q1bd1NjY6N521FlIK8F0tjYONre3n6n2XZYZIfm5uYH2tra0ieUmUxeC4Qx434Pm22HheFM3XHHHd8124hM5L1AmPttb2/nqqdlkX80NzdvZD0Es+3IRN4LBKe8yGYA5gXpLYwmdMcddxi6j2W2mBUCYV5k3bp1HwZAT7m1yBtaW1tvbWxsNKUIg15mhUBwannuaw0NDZ1m22HBzUvr169/zGwjtDJrBIJTeVobzCoVZGEMq1evzttJwWTMKoG0tbX1tLa2fsJsOyxoNDQ0PLhq1SrTcukp5G0uVjra29tfBHCl2XZY6KLvvvvuW7xixQpTyjxRmVUeRGX16tWmLc+1oNHe3v4fs00cmK0CWbVq1XMAtplth4Vm9q9cudK0wr48zEqBMNatW3cbgEGz7bDISLijo+OmxsZG47f4zQGzViBtbW3HW1tbHzHbDov0NDQ0/KSjo+PPZttBZdYKBKeWaG4EYFr5DYuMRDo6Or5hthE8zGqBtLS0DHd0dHzSbDssknPhhRd+ra2t7W9m28HDrBYITk0e/qqystK8zSssUrFn7dq1sz7aOOsFwrjllls+a9Y2ChbJWb169Wdn68A8njkhkLa2tp6GhoZfmG2HxWlenW0z5qmYEwLB34s8ZH+neouMtLe3z5mCG3NGIKtWrXr9wgsv/LbZdljgd2vWrJkz3nzOCISxdu3arwDYa7Yd5zCj69atm1PJpHNKII2NjdOtra15Uxn8XKO1tXVTW1vbnKofMCuzedMRCASEnp6e9wIoM9uWc4xIS0vLs1VVVabvCmUkc04gFhZGMqe6WBYWRmMJxMIiDZZALCzSYAnEwiINlkAsLNJgCcTCIg2WQCws0mAJxMIiDZZALCzSYAnEwiINlkAsLNJgCcTCIg2WQCws0mAJxMIiDZZALCzSYAnEwiINlkAsLNLw/wMAAP//7wY4sfn13sQAAAAASUVORK5CYII=;" vertex="1" parent="1">
          <mxGeometry x="540" y="40" width="80" height="80" as="geometry" />
        </mxCell>
        <mxCell id="_jDFj12-EfxpkDhz6urm-12" value="Openshift" style="text;html=1;strokeColor=none;fillColor=none;align=center;verticalAlign=middle;whiteSpace=wrap;rounded=0;" vertex="1" parent="1">
          <mxGeometry x="230" y="90" width="60" height="30" as="geometry" />
        </mxCell>
        <mxCell id="_jDFj12-EfxpkDhz6urm-13" value="Keycloak" style="text;html=1;strokeColor=none;fillColor=none;align=center;verticalAlign=middle;whiteSpace=wrap;rounded=0;" vertex="1" parent="1">
          <mxGeometry x="550" y="120" width="60" height="30" as="geometry" />
        </mxCell>
        <mxCell id="_jDFj12-EfxpkDhz6urm-15" value="" style="shape=image;verticalLabelPosition=bottom;labelBackgroundColor=default;verticalAlign=top;aspect=fixed;imageAspect=0;image=data:image/png,iVBORw0KGgoAAAANSUhEUgAAAT0AAACfCAMAAAC85v7+AAABU1BMVEUAAAD///9zc3MA8ub7AVvWOv8AufH39/fw8PD7+/sUFBSbm5v/AV1oaGgeHh6JiYk+Pj66urpiYmLZ2dmSkpKAgIAmJibS0tIICAgA+Oxubm7cPP8AwPoAnpaXATfo6OgkAA3xAVe7M98Aqt6kADwAIiDlAVOioqIAu7IAg6uZKbfMN/Pi4uIAExkAmMcAkYqvr680NDQAKykA3dJQAB0AU09yACksABAUAAcAW1ZLS0vBwcFVVVUAM0IlCiwSBRZOFV1iGnUAYX+qLsvJAUkARFkAICoAd5sAUGgaBx8AXXkAqqGFJJ4AGB87ABUAFRSJADIAamUAPDphACMAf3gA08jUAU10AB16kI+7k5xV2tHXNGs4D0OOACgAOks1AAArCzN3II6uL89tFWlHE1VwHoVgGnKBIJiDNq8wb68aUXOjJrDCADkAqp62AEEoODXhaIncKTZZAAAJgklEQVR4nO2d6UMaPR6Aw4061vsYBxQ5lKuAolZBrTfUYquvx+6+6+uqq+2e7v7/n3YyZ5LJYLSvDGV/z5dKCJPwkHuSKfIDrwcBAAAAAAAAAAAAAAAAAAAAAAAAAAAAAAAAAAAAAAAAAAAAAPAMw/4Zk8ElrzPz0zEUiZrMwUGGlzLus4hMeJ2Znw6w9yMMgb0XsZw9I14R9vqGiPDTp07n66fgrCpXf7Ffutg7n5cWVjqfuS4nE5flgJzNWAF8e4krKSjNzyY8yGEXs5qVA5iyFcK39yQFg0EpePDFi0x2KxfVgMGqGcS1txbUkRbWvMloF5IxCp6KHJg2Ann2VhYkU18w/cGr7HYXq5eWPFVf1tDHsZc4MOVhf1cJz3LcTWxUAyRG08exlw4SSPMJrzLcXVzIpL2q3vQ57a0EKXvQ8hl8JvXJl8s4zGHvw7xEypv1NstdxNdLSt9nHMbaW3+i5B1Ap2FBN33yBXLaO6UbPZhvEJSpjgM3fYy9FbreQqNHkWWbPtre+gIlL+11druM5SqlL44mCHvjiG70rqDRYzijhi2BDT9p7w90o3f+yjSm+zGOYC10mhPfFfYT+oVdeWV2X0KcHvX9kbD3J6reBl89WBmNRiIR3yAT+g6HquWbpbY4p74Rqc+8Y98Z1q5DrNlO4AA3+oqbr81wG7YOj8iXmSxV+H6NWvbm/kzVW3p5dHvnWjjF0T58OYe9CA4dYEJrI1b6Rfau1LB2HWLVcajP14a5N7A3nQuXGs33dsAqNWyJT1g58v9Gzm8XEvZHPu629kN54STF7U1PzJHff5G+JzocYe1FOm1vKxUOh1Ol3JYVQjV9cWT++CNo1rYnzduDlZ18shAKhZKfRJMUt+dnCtMIVXud9jpe9pqxsE6qcXOiB5EztjhC+s8/tUTZMxq97Z18yKCwK5qksL1hhwH6be/LXi5sEoulGse4CGaIGZtqr4bzFB1FhD3pYF2Nd72bLyiKaU9piSYpbG9M+9Z9Y/XFkSmj/SUNOOzVxgm0N8eG7ICJN9gLESaJhUu5vSNyxqba0+7p4r7QsifN/wXd3uWTIUsdZn9bMElRe/pIPTo+iV/MTOlVgHjfYY8iqjc3b8phLMySKjXxvSHb3ru6r47jGvYkSVp7vGfU4aq7I5imqD3dl9nTDuslkRjeeW+v5JCnFcFmvFoNyIY9tKT/4qo9SQrOX/32V4c5rep+F0xT0F6tiAPq1mu/FoEY3jlGLBQdsPc+xbOnlj915BLPVmU5TkSelaSFg/QKuk5y3OFeVzBRQXszUaahY314XvaafHnhWE59M7NRzpL2Tg9mz9Xe4lOeLy+k3IolKmhvQguYtAOKTMPnub2cs9kzONbezywTkRMJ7Z9HF3kh5VEsUUF7eqdB2NPawTH7tdf2jnIuNVetu4cun3ngtXnYXaiwL5bq72bP83bvMFdKcctfrPSe+4ltfqOnFPZbO4KJ9ow9laPmXinMERhrcKPzGj0ltH+3IzxR6yl7Kidbe7wa3OREveP1tY+34upQz9nDHO2VUmQRTKUaW5xoD/qSgFXoksnHjy9Nqgftqdw0cnobqE7YGm6dBlr/lt/XRsuKkszfia/q2fSmPbUTuTnOqf3FHr1g6uD22/ekUsjvPrwulV61p7L9+Lfr9WdjfT38+z9OXptEj9rb3nlUK6VaI1vfbttE22o2UrFYLJzbu+GPap6hJ+3ttPYLitkb3Od3+f3oyXHOGuDEUjn39tGd3rN3jftSahZRSHLWTKYbVMes/p0qcfvmdvSWve2HViHkQCnwhiKHvIFhau/mJY1gD9m73m0lFe7UdYcb/5g7rYuVGs32/TRBr9j7uMsur9u43aZwWZbBi/rHYqn2jL19F3Uh5d7tLsWJ67JMrCSWaq+sUKGWi7xQUptEfFghN+j9sqGt9t242uNNjDn0StlDD5zuQit6uwgl1mavqE1mZfmyfJZBaM9Nn+Dob0bTMsqE9mtLx4t2wIAWjdi7M8LYq2kR3M4edqLXcFmty6Pzp4N5STLs6d+0LMtyNft5lbgHTJETTFM7tRqtMaH9dRxct8radAW/nutnPjdnf07b3xWZcUmlE/ZanIZPCf0zvaCqw7cfNXv+iJblMr7JJgeq1XguxlsQFOw09O9Vn2SDB+giuanV5AoRQS9rdunUNjmMDbdL5Y3tfXLclU3mH9C/JPPGN7ZXK/qi+D582bzJK/8bHTrX9FM3Qiku6bdp2c1SZoWOGGVrWN8AQu2b0kLMYyOT+gYbVz8dGe+RDZ9SuM9/U8fIs/ZeKdXeNK5S9XeEvUDgAqEjYsqmFb2cQLPXX5vQb2pzNpVMalXXFx3fnHy3OaTLo0uWXjp9ldEl9Tr6jxBhm0+Ljtizqq6i3H/XFwfIrd1pI8/4Fyfs6WdhjpqNkl2H+Sv5NJWisc3JWfTUwmds4pkbmyrqfzHH0ZfG7AhG3ArnOjodsWfeIkveXZvLAuS++DSq6d83sknas47wnmw1Ui+ouMbXp7aj2Cz6GNgv748yEebck+qIve17JZS8b93aIdTW7vR/jGLgi5L2AuQmg60GXtQXGirr1c1XdNmeXKc34DkdD9H6im5dBurUKsHdfotaI6bOswTT9s7XSpnaT08+vQAdNkp7IolpZa9v0dHfmowTe0WjvNo9OEbIq7SR1yF7n+h1vBV6a/d/7dIQ+ZWyV81QnzsRWmXB331qtM3GeHuf8gh/s+LSgJmj4kzbXfCRjtijwU8cIHYnH5DnNQboszDZV1x+fMC/9MyhgsnB8UplfNC1eKL+zaHFyoB/+JkTBJURFbdp3BuRpuQtrJP2huizMMTTCwCNNUre/BpzVog+C1Pd8Dq73cWXK/YcGm2POcJb9Tq/XQX1xAG10UMOe8s/3vT1LLN0vcVPW2HssU8vuPA6y93DOefwLWsPXQSourva/pL/RyxwzqE57DFHeLNfvcxx97B+wHvigNMeYo/wAiprZL21Dt9y7DFPL4DCh/kyKxHn0E6NUI49FCfcBcpgT8fuNezDtzx7X62mT76EAbNF4iko6TM064kDPHsoozd9cuCzN/nsVk5x8SOfOMC1h8704QqM9hjO8VyNuInLt4efXiBnYaznIPGkzdBMXOypMzZYYeFySm68dbGHNqDgCeBmDxAB7P0IhD0f2Hspg2NTFvB/HLyYaRuvswIAAAAAAAAAAAAAAAAAAAAAAAAAAAAAAAAAAAAAAAAAAAAAwA/iB17P/wDeaSKf3/5ocwAAAABJRU5ErkJggg==;" vertex="1" parent="1">
          <mxGeometry x="473" y="190" width="67" height="33.61" as="geometry" />
        </mxCell>
        <mxCell id="_jDFj12-EfxpkDhz6urm-16" value="" style="endArrow=classic;html=1;rounded=0;entryX=0;entryY=0.5;entryDx=0;entryDy=0;" edge="1" parent="1" source="_jDFj12-EfxpkDhz6urm-3" target="_jDFj12-EfxpkDhz6urm-11">
          <mxGeometry width="50" height="50" relative="1" as="geometry">
            <mxPoint x="280" y="220" as="sourcePoint" />
            <mxPoint x="330" y="170" as="targetPoint" />
          </mxGeometry>
        </mxCell>
        <mxCell id="_jDFj12-EfxpkDhz6urm-17" value="" style="endArrow=classic;html=1;rounded=0;entryX=0.5;entryY=0;entryDx=0;entryDy=0;exitX=-0.062;exitY=0.613;exitDx=0;exitDy=0;exitPerimeter=0;" edge="1" parent="1" source="_jDFj12-EfxpkDhz6urm-11" target="_jDFj12-EfxpkDhz6urm-15">
          <mxGeometry width="50" height="50" relative="1" as="geometry">
            <mxPoint x="280" y="220" as="sourcePoint" />
            <mxPoint x="330" y="170" as="targetPoint" />
          </mxGeometry>
        </mxCell>
        <mxCell id="_jDFj12-EfxpkDhz6urm-18" value="" style="endArrow=classic;html=1;rounded=0;exitX=0;exitY=0.5;exitDx=0;exitDy=0;entryX=0.946;entryY=0.67;entryDx=0;entryDy=0;entryPerimeter=0;" edge="1" parent="1" source="_jDFj12-EfxpkDhz6urm-15" target="_jDFj12-EfxpkDhz6urm-3">
          <mxGeometry width="50" height="50" relative="1" as="geometry">
            <mxPoint x="280" y="220" as="sourcePoint" />
            <mxPoint x="330" y="170" as="targetPoint" />
          </mxGeometry>
        </mxCell>
        <mxCell id="_jDFj12-EfxpkDhz6urm-19" value="" style="endArrow=classic;html=1;rounded=0;" edge="1" parent="1" source="_jDFj12-EfxpkDhz6urm-3" target="_jDFj12-EfxpkDhz6urm-20">
          <mxGeometry width="50" height="50" relative="1" as="geometry">
            <mxPoint x="280" y="220" as="sourcePoint" />
            <mxPoint x="330" y="170" as="targetPoint" />
          </mxGeometry>
        </mxCell>
        <mxCell id="_jDFj12-EfxpkDhz6urm-20" value="" style="shape=image;verticalLabelPosition=bottom;labelBackgroundColor=default;verticalAlign=top;aspect=fixed;imageAspect=0;image=data:image/png,iVBORw0KGgoAAAANSUhEUgAAAT0AAACfCAMAAAC85v7+AAABU1BMVEUAAAD///9zc3MA8ub7AVvWOv8AufH39/fw8PD7+/sUFBSbm5v/AV1oaGgeHh6JiYk+Pj66urpiYmLZ2dmSkpKAgIAmJibS0tIICAgA+Oxubm7cPP8AwPoAnpaXATfo6OgkAA3xAVe7M98Aqt6kADwAIiDlAVOioqIAu7IAg6uZKbfMN/Pi4uIAExkAmMcAkYqvr680NDQAKykA3dJQAB0AU09yACksABAUAAcAW1ZLS0vBwcFVVVUAM0IlCiwSBRZOFV1iGnUAYX+qLsvJAUkARFkAICoAd5sAUGgaBx8AXXkAqqGFJJ4AGB87ABUAFRSJADIAamUAPDphACMAf3gA08jUAU10AB16kI+7k5xV2tHXNGs4D0OOACgAOks1AAArCzN3II6uL89tFWlHE1VwHoVgGnKBIJiDNq8wb68aUXOjJrDCADkAqp62AEEoODXhaIncKTZZAAAJgklEQVR4nO2d6UMaPR6Aw4061vsYBxQ5lKuAolZBrTfUYquvx+6+6+uqq+2e7v7/n3YyZ5LJYLSvDGV/z5dKCJPwkHuSKfIDrwcBAAAAAAAAAAAAAAAAAAAAAAAAAAAAAAAAAAAAAAAAAAAAAPAMw/4Zk8ElrzPz0zEUiZrMwUGGlzLus4hMeJ2Znw6w9yMMgb0XsZw9I14R9vqGiPDTp07n66fgrCpXf7Ffutg7n5cWVjqfuS4nE5flgJzNWAF8e4krKSjNzyY8yGEXs5qVA5iyFcK39yQFg0EpePDFi0x2KxfVgMGqGcS1txbUkRbWvMloF5IxCp6KHJg2Ann2VhYkU18w/cGr7HYXq5eWPFVf1tDHsZc4MOVhf1cJz3LcTWxUAyRG08exlw4SSPMJrzLcXVzIpL2q3vQ57a0EKXvQ8hl8JvXJl8s4zGHvw7xEypv1NstdxNdLSt9nHMbaW3+i5B1Ap2FBN33yBXLaO6UbPZhvEJSpjgM3fYy9FbreQqNHkWWbPtre+gIlL+11druM5SqlL44mCHvjiG70rqDRYzijhi2BDT9p7w90o3f+yjSm+zGOYC10mhPfFfYT+oVdeWV2X0KcHvX9kbD3J6reBl89WBmNRiIR3yAT+g6HquWbpbY4p74Rqc+8Y98Z1q5DrNlO4AA3+oqbr81wG7YOj8iXmSxV+H6NWvbm/kzVW3p5dHvnWjjF0T58OYe9CA4dYEJrI1b6Rfau1LB2HWLVcajP14a5N7A3nQuXGs33dsAqNWyJT1g58v9Gzm8XEvZHPu629kN54STF7U1PzJHff5G+JzocYe1FOm1vKxUOh1Ol3JYVQjV9cWT++CNo1rYnzduDlZ18shAKhZKfRJMUt+dnCtMIVXud9jpe9pqxsE6qcXOiB5EztjhC+s8/tUTZMxq97Z18yKCwK5qksL1hhwH6be/LXi5sEoulGse4CGaIGZtqr4bzFB1FhD3pYF2Nd72bLyiKaU9piSYpbG9M+9Z9Y/XFkSmj/SUNOOzVxgm0N8eG7ICJN9gLESaJhUu5vSNyxqba0+7p4r7QsifN/wXd3uWTIUsdZn9bMElRe/pIPTo+iV/MTOlVgHjfYY8iqjc3b8phLMySKjXxvSHb3ru6r47jGvYkSVp7vGfU4aq7I5imqD3dl9nTDuslkRjeeW+v5JCnFcFmvFoNyIY9tKT/4qo9SQrOX/32V4c5rep+F0xT0F6tiAPq1mu/FoEY3jlGLBQdsPc+xbOnlj915BLPVmU5TkSelaSFg/QKuk5y3OFeVzBRQXszUaahY314XvaafHnhWE59M7NRzpL2Tg9mz9Xe4lOeLy+k3IolKmhvQguYtAOKTMPnub2cs9kzONbezywTkRMJ7Z9HF3kh5VEsUUF7eqdB2NPawTH7tdf2jnIuNVetu4cun3ngtXnYXaiwL5bq72bP83bvMFdKcctfrPSe+4ltfqOnFPZbO4KJ9ow9laPmXinMERhrcKPzGj0ltH+3IzxR6yl7Kidbe7wa3OREveP1tY+34upQz9nDHO2VUmQRTKUaW5xoD/qSgFXoksnHjy9Nqgftqdw0cnobqE7YGm6dBlr/lt/XRsuKkszfia/q2fSmPbUTuTnOqf3FHr1g6uD22/ekUsjvPrwulV61p7L9+Lfr9WdjfT38+z9OXptEj9rb3nlUK6VaI1vfbttE22o2UrFYLJzbu+GPap6hJ+3ttPYLitkb3Od3+f3oyXHOGuDEUjn39tGd3rN3jftSahZRSHLWTKYbVMes/p0qcfvmdvSWve2HViHkQCnwhiKHvIFhau/mJY1gD9m73m0lFe7UdYcb/5g7rYuVGs32/TRBr9j7uMsur9u43aZwWZbBi/rHYqn2jL19F3Uh5d7tLsWJ67JMrCSWaq+sUKGWi7xQUptEfFghN+j9sqGt9t242uNNjDn0StlDD5zuQit6uwgl1mavqE1mZfmyfJZBaM9Nn+Dob0bTMsqE9mtLx4t2wIAWjdi7M8LYq2kR3M4edqLXcFmty6Pzp4N5STLs6d+0LMtyNft5lbgHTJETTFM7tRqtMaH9dRxct8radAW/nutnPjdnf07b3xWZcUmlE/ZanIZPCf0zvaCqw7cfNXv+iJblMr7JJgeq1XguxlsQFOw09O9Vn2SDB+giuanV5AoRQS9rdunUNjmMDbdL5Y3tfXLclU3mH9C/JPPGN7ZXK/qi+D582bzJK/8bHTrX9FM3Qiku6bdp2c1SZoWOGGVrWN8AQu2b0kLMYyOT+gYbVz8dGe+RDZ9SuM9/U8fIs/ZeKdXeNK5S9XeEvUDgAqEjYsqmFb2cQLPXX5vQb2pzNpVMalXXFx3fnHy3OaTLo0uWXjp9ldEl9Tr6jxBhm0+Ljtizqq6i3H/XFwfIrd1pI8/4Fyfs6WdhjpqNkl2H+Sv5NJWisc3JWfTUwmds4pkbmyrqfzHH0ZfG7AhG3ArnOjodsWfeIkveXZvLAuS++DSq6d83sknas47wnmw1Ui+ouMbXp7aj2Cz6GNgv748yEebck+qIve17JZS8b93aIdTW7vR/jGLgi5L2AuQmg60GXtQXGirr1c1XdNmeXKc34DkdD9H6im5dBurUKsHdfotaI6bOswTT9s7XSpnaT08+vQAdNkp7IolpZa9v0dHfmowTe0WjvNo9OEbIq7SR1yF7n+h1vBV6a/d/7dIQ+ZWyV81QnzsRWmXB331qtM3GeHuf8gh/s+LSgJmj4kzbXfCRjtijwU8cIHYnH5DnNQboszDZV1x+fMC/9MyhgsnB8UplfNC1eKL+zaHFyoB/+JkTBJURFbdp3BuRpuQtrJP2huizMMTTCwCNNUre/BpzVog+C1Pd8Dq73cWXK/YcGm2POcJb9Tq/XQX1xAG10UMOe8s/3vT1LLN0vcVPW2HssU8vuPA6y93DOefwLWsPXQSourva/pL/RyxwzqE57DFHeLNfvcxx97B+wHvigNMeYo/wAiprZL21Dt9y7DFPL4DCh/kyKxHn0E6NUI49FCfcBcpgT8fuNezDtzx7X62mT76EAbNF4iko6TM064kDPHsoozd9cuCzN/nsVk5x8SOfOMC1h8704QqM9hjO8VyNuInLt4efXiBnYaznIPGkzdBMXOypMzZYYeFySm68dbGHNqDgCeBmDxAB7P0IhD0f2Hspg2NTFvB/HLyYaRuvswIAAAAAAAAAAAAAAAAAAAAAAAAAAAAAAAAAAAAAAAAAAAAAwA/iB17P/wDeaSKf3/5ocwAAAABJRU5ErkJggg==;" vertex="1" parent="1">
          <mxGeometry x="100" y="176.39" width="67" height="33.61" as="geometry" />
        </mxCell>
        <mxCell id="_jDFj12-EfxpkDhz6urm-21" value="" style="endArrow=classic;html=1;rounded=0;" edge="1" parent="1" source="_jDFj12-EfxpkDhz6urm-20" target="_jDFj12-EfxpkDhz6urm-5">
          <mxGeometry width="50" height="50" relative="1" as="geometry">
            <mxPoint x="280" y="220" as="sourcePoint" />
            <mxPoint x="330" y="170" as="targetPoint" />
          </mxGeometry>
        </mxCell>
        <mxCell id="_jDFj12-EfxpkDhz6urm-23" value="" style="endArrow=classic;html=1;rounded=0;exitX=0.995;exitY=0.63;exitDx=0;exitDy=0;exitPerimeter=0;entryX=0;entryY=0.5;entryDx=0;entryDy=0;entryPerimeter=0;" edge="1" parent="1" source="_jDFj12-EfxpkDhz6urm-5" target="_jDFj12-EfxpkDhz6urm-9">
          <mxGeometry width="50" height="50" relative="1" as="geometry">
            <mxPoint x="280" y="220" as="sourcePoint" />
            <mxPoint x="330" y="170" as="targetPoint" />
          </mxGeometry>
        </mxCell>
        <mxCell id="_jDFj12-EfxpkDhz6urm-24" value="Authorization/Authentication&lt;br&gt;OIDC" style="text;html=1;strokeColor=none;fillColor=none;align=center;verticalAlign=middle;whiteSpace=wrap;rounded=0;" vertex="1" parent="1">
          <mxGeometry x="550" y="14" width="60" height="30" as="geometry" />
        </mxCell>
        <mxCell id="_jDFj12-EfxpkDhz6urm-25" value="" style="shape=image;verticalLabelPosition=bottom;labelBackgroundColor=default;verticalAlign=top;aspect=fixed;imageAspect=0;image=data:image/svg+xml,PHN2ZyB4bWxucz0iaHR0cDovL3d3dy53My5vcmcvMjAwMC9zdmciIHZpZXdCb3g9IjAgMCAyNTcuNDUgNDAuOTgiIGRhdGEtbmFtZT0iTGF5ZXIgMSIgaWQ9IkxheWVyXzEiPjxkZWZzPjxzdHlsZT4uY2xzLTF7ZmlsbDojYTliNWFmO30uY2xzLTJ7ZmlsbDojZjYwO308L3N0eWxlPjwvZGVmcz48dGl0bGU+UmFiYml0TVFfTG9nb19SR0I8L3RpdGxlPjxwYXRoIHRyYW5zZm9ybT0idHJhbnNsYXRlKC0xLjExIC0wLjk4KSIgZD0iTTI1OCwzNS43MmwtMS44Miw1LjY4aC0wLjU2bC0xLjgzLTUuNjhoMFY0MS40aC0wLjQ5VjM1LjIzaDAuODlsMS43Myw1LjQxaDBsMS43My01LjQxaDAuODdWNDEuNGgtMC40OVYzNS43MmgwWm0wLDAiIGNsYXNzPSJjbHMtMSIvPjxwb2x5Z29uIHBvaW50cz0iMjUxLjYgMzQuMjUgMjQ5LjA2IDM0LjI1IDI0OC41NyAzNC4yNSAyNDYuMDQgMzQuMjUgMjQ2LjA0IDM0Ljc0IDI0OC41NyAzNC43NCAyNDguNTcgNDAuNDIgMjQ5LjA2IDQwLjQyIDI0OS4wNiAzNC43NCAyNTEuNiAzNC43NCAyNTEuNiAzNC4yNSIgY2xhc3M9ImNscy0xIi8+PHBhdGggdHJhbnNmb3JtPSJ0cmFuc2xhdGUoLTEuMTEgLTAuOTgpIiBkPSJNMTk0LDQxLjMxaC0zLjYyTDE3OC40OCw0LjgzVjQxLjMxaC0zLjE3VjEuNjZIMTgxbDExLjA4LDM0LjcxaDAuMTJMMjAzLjMyLDEuNjZoNS41NlY0MS4zMWgtMy4xNFY0LjgzWiIgY2xhc3M9ImNscy0xIi8+PHBhdGggdHJhbnNmb3JtPSJ0cmFuc2xhdGUoLTEuMTEgLTAuOTgpIiBkPSJNNDcuOCwxLjY1VjQxLjMxaDMuNDRWMjMuMzhINTZhMTAuNDgsMTAuNDgsMCwwLDEsMy43LjZjMy41MSwxLjMzLDMuOTEsNS40LDQuNTQsOGwyLDkuMzhINjkuN2wtMi4yNS0xMC43Yy0wLjY2LTMuMjItMS4xLTQuNi0yLTYtMS4xOS0xLjg1LTQuNTktMi44NS00LjU5LTIuODUsNS41OC0xLjA5LDgtNC44Myw4LTkuOTMsMC00LjY4LTIuMjctMTAuMTUtMTIuNjktMTAuMTVINDcuOFptMy40NCwzLjE2aDQuNTRjOS4wNywwLDkuNiw0LjgyLDkuNiw3LDAsMS44MS0uMzMsOC40MS0xMSw4LjQxSDUxLjI0VjQuODJoMFptMCwwIiBjbGFzcz0iY2xzLTIiLz48cGF0aCB0cmFuc2Zvcm09InRyYW5zbGF0ZSgtMS4xMSAtMC45OCkiIGQ9Ik03My43OSwyMC41MWgzLjUyYzAuMzItMS42LDEtNC40NCw1LjY5LTQuNDQsNi4xNCwwLDUuOTQsNS4zMiw1Ljk0LDcuMzh2Mi40cy0yLDAtMy4yNC4xMmMtNC42OS4zNi0xMi4zNSwxLjU4LTEyLjM1LDguNjVzNS44Niw3LjMxLDcsNy4zMWExMC4wNiwxMC4wNiwwLDAsMCw0Ljg0LTEuMTUsMTAuMzEsMTAuMzEsMCwwLDAsMy42Ni0zLjM0aDAuMTJ2My44N2gyLjg1VjIyLjYzYzAtMi43OS4yNi05LjMtOC41NS05LjNTNzMuNzksMTkuMjEsNzMuNzksMjAuNTFabTE1LjE0LDguMDhhMjUuNTIsMjUuNTIsMCwwLDEtLjIsMy4xNiw3LjkzLDcuOTMsMCwwLDEtNy44Niw2LjczLDMuNzEsMy43MSwwLDAsMS00LjA2LTMuNzFjMC0xLjQ1LjU2LTQuODQsNi4xMy01LjkxQzg0LjExLDI4LjY0LDg4LjkzLDI4LjU5LDg4LjkzLDI4LjU5WiIgY2xhc3M9ImNscy0yIi8+PHBhdGggdHJhbnNmb3JtPSJ0cmFuc2xhdGUoLTEuMTEgLTAuOTgpIiBkPSJNOTYuNTQsMS42NVYzMC4xMWMwLDEuNTQuMDUsMTEuODMsOS41MywxMS44MywyLjI4LDAsMTAuNi0uOCwxMC42LTE0cy03LjMtMTQuNTktOS41LTE0LjU5YTcuODksNy44OSwwLDAsMC03LjY0LDUuNzhoLTAuMVYxLjY1aC0yLjlabTE2LjY3LDI2LjIxYzAsMTEuMDctNi4xOCwxMS4zLTcuMTQsMTEuM3MtNi41MywwLTYuNTMtMTAuODVjMC05LDQuMzMtMTIuMjUsNy4zMS0xMi4yNVMxMTMuMjEsMTkuMTMsMTEzLjIxLDI3Ljg3WiIgY2xhc3M9ImNscy0yIi8+PHBhdGggdHJhbnNmb3JtPSJ0cmFuc2xhdGUoLTEuMTEgLTAuOTgpIiBkPSJNMTIxLjEzLDEuNjVWMzAuMTFjMCwxLjU0LjA1LDExLjgzLDkuNTMsMTEuODMsMi4yOCwwLDEwLjYtLjgsMTAuNi0xNHMtNy4zLTE0LjU5LTkuNS0xNC41OWE3Ljg5LDcuODksMCwwLDAtNy42NCw1Ljc4SDEyNFYxLjY1aC0yLjlabTE2LjY3LDI2LjIxYzAsMTEuMDctNi4xOCwxMS4zLTcuMTQsMTEuM3MtNi41MywwLTYuNTMtMTAuODVjMC05LDQuMzMtMTIuMjUsNy4zMS0xMi4yNVMxMzcuNzksMTkuMTMsMTM3Ljc5LDI3Ljg3WiIgY2xhc3M9ImNscy0yIi8+PHBhdGggdHJhbnNmb3JtPSJ0cmFuc2xhdGUoLTEuMTEgLTAuOTgpIiBkPSJNMTQ5LDEzLjk1VjQxLjMxaC0yLjg3VjEzLjk1SDE0OVoiIGNsYXNzPSJjbHMtMiIvPjxwYXRoIHRyYW5zZm9ybT0idHJhbnNsYXRlKC0xLjExIC0wLjk4KSIgZD0iTTE0OS42NiwxLjY2VjYuMzFoLTQuMjRWMS42Nmg0LjI0Wm0wLDAiIGNsYXNzPSJjbHMtMiIvPjxwYXRoIHRyYW5zZm9ybT0idHJhbnNsYXRlKC0xLjExIC0wLjk4KSIgZD0iTTE2OSw0MS42OWEyOC4xOSwyOC4xOSwwLDAsMS0yLjkyLjI1LDguNDgsOC40OCwwLDAsMS01LjQ1LTEuNTdjLTEuMi0xLTEuNzktMi43Ni0xLjc5LTUuMTdWMTYuNjloLTQuMzhWMTMuOTVoNC4zOFY3LjYzbDIuODUtMS45MXY4LjIySDE2OXYyLjc0aC03LjN2MTcuNmMwLDAuNzktLjE5LDQuODcsNC4xNCw0Ljg3YTExLjE4LDExLjE4LDAsMCwwLDMuMTYtLjQ5djNoMFptMCwwIiBjbGFzcz0iY2xzLTIiLz48cGF0aCB0cmFuc2Zvcm09InRyYW5zbGF0ZSgtMS4xMSAtMC45OCkiIGQ9Ik0zOS40MiwxNy4zN0gyNi42NWExLjU5LDEuNTksMCwwLDEtMS42LTEuNlYzYTEuNTksMS41OSwwLDAsMC0xLjYtMS41OUgxOC42N0ExLjU5LDEuNTksMCwwLDAsMTcuMDcsM1YxNS43N2ExLjU5LDEuNTksMCwwLDEtMS42LDEuNkgxMC42OWExLjU5LDEuNTksMCwwLDEtMS42LTEuNlYzQTEuNTksMS41OSwwLDAsMCw3LjQ5LDEuNEgyLjdBMS41OSwxLjU5LDAsMCwwLDEuMTEsM1YzOS43MmExLjU5LDEuNTksMCwwLDAsMS42LDEuNkgzOS40MmExLjU5LDEuNTksMCwwLDAsMS42LTEuNlYxOUExLjU5LDEuNTksMCwwLDAsMzkuNDIsMTcuMzdaTTMzLDMwLjkzYTIuMzksMi4zOSwwLDAsMS0yLjM5LDIuNGgtMy4yYTIuMzksMi4zOSwwLDAsMS0yLjM5LTIuNFYyNy43NGEyLjM5LDIuMzksMCwwLDEsMi4zOS0yLjRoMy4yQTIuMzksMi4zOSwwLDAsMSwzMywyNy43NHYzLjE5WiIgY2xhc3M9ImNscy0yIi8+PHBhdGggdHJhbnNmb3JtPSJ0cmFuc2xhdGUoLTEuMTEgLTAuOTgpIiBkPSJNMjM1LjI2LDM4LjYyYzMuNjctMy4xNCw1LjYzLTksNS42My0xNy40NSwwLTEyLjMxLTQuNjUtMjAuMi0xMy4zMy0yMC4yLTguMTQsMC0xMy44MSw2LjYxLTEzLjgxLDIwLjJzNC44MiwyMC4xNiwxMy41NywyMC4xNmwwLjM3LDB2MGgxNlYzOFpNMjE3LjUyLDIxLjE4YzAtMTEuMywzLjIzLTE2Ljc5LDEwLTE2Ljc5czkuNTYsNi41Niw5LjU2LDE2Ljc5UzIzNC42MiwzOCwyMjcuMzUsMzgsMjE3LjUyLDMyLjQ4LDIxNy41MiwyMS4xOFoiIGNsYXNzPSJjbHMtMSIvPjwvc3ZnPg==;" vertex="1" parent="1">
          <mxGeometry x="182.84" y="450" width="194.32" height="31" as="geometry" />
        </mxCell>
        <mxCell id="_jDFj12-EfxpkDhz6urm-26" value="&lt;b&gt;Message Queue &lt;/b&gt;- alowing future services to tie into events from this app, doesn&#39;t have to be rabbit" style="text;html=1;strokeColor=none;fillColor=none;align=center;verticalAlign=middle;whiteSpace=wrap;rounded=0;" vertex="1" parent="1">
          <mxGeometry x="208.43" y="510" width="143.14" height="30" as="geometry" />
        </mxCell>
        <mxCell id="_jDFj12-EfxpkDhz6urm-28" value="" style="shadow=0;dashed=0;html=1;strokeColor=none;fillColor=#4495D1;labelPosition=center;verticalLabelPosition=bottom;verticalAlign=top;align=center;outlineConnect=0;shape=mxgraph.veeam.2d.alert;" vertex="1" parent="1">
          <mxGeometry x="650" y="390" width="33.2" height="33.2" as="geometry" />
        </mxCell>
        <mxCell id="_jDFj12-EfxpkDhz6urm-29" value="CAP / CP Alerting" style="text;html=1;strokeColor=none;fillColor=none;align=center;verticalAlign=middle;whiteSpace=wrap;rounded=0;" vertex="1" parent="1">
          <mxGeometry x="637" y="350" width="60" height="30" as="geometry" />
        </mxCell>
        <mxCell id="_jDFj12-EfxpkDhz6urm-30" value="" style="endArrow=classic;startArrow=classic;html=1;rounded=0;exitX=1;exitY=0.5;exitDx=0;exitDy=0;" edge="1" parent="1" source="_jDFj12-EfxpkDhz6urm-25" target="_jDFj12-EfxpkDhz6urm-28">
          <mxGeometry width="50" height="50" relative="1" as="geometry">
            <mxPoint x="320" y="470" as="sourcePoint" />
            <mxPoint x="370" y="420" as="targetPoint" />
          </mxGeometry>
        </mxCell>
        <mxCell id="_jDFj12-EfxpkDhz6urm-31" value="Picks up messages and issues Alerts" style="text;html=1;strokeColor=none;fillColor=none;align=center;verticalAlign=middle;whiteSpace=wrap;rounded=0;" vertex="1" parent="1">
          <mxGeometry x="510" y="360" width="60" height="30" as="geometry" />
        </mxCell>
        <mxCell id="_jDFj12-EfxpkDhz6urm-33" value="" style="endArrow=classic;html=1;rounded=0;exitX=0.5;exitY=1;exitDx=0;exitDy=0;" edge="1" parent="1" source="_jDFj12-EfxpkDhz6urm-34" target="_jDFj12-EfxpkDhz6urm-25">
          <mxGeometry width="50" height="50" relative="1" as="geometry">
            <mxPoint x="180" y="380" as="sourcePoint" />
            <mxPoint x="230" y="330" as="targetPoint" />
          </mxGeometry>
        </mxCell>
        <mxCell id="_jDFj12-EfxpkDhz6urm-35" value="" style="endArrow=classic;html=1;rounded=0;exitX=0.5;exitY=1;exitDx=0;exitDy=0;" edge="1" parent="1" source="_jDFj12-EfxpkDhz6urm-6" target="_jDFj12-EfxpkDhz6urm-34">
          <mxGeometry width="50" height="50" relative="1" as="geometry">
            <mxPoint x="175" y="333" as="sourcePoint" />
            <mxPoint x="268" y="450" as="targetPoint" />
          </mxGeometry>
        </mxCell>
        <mxCell id="_jDFj12-EfxpkDhz6urm-34" value="Logic defined for each end point to issue messages" style="text;html=1;strokeColor=none;fillColor=none;align=center;verticalAlign=middle;whiteSpace=wrap;rounded=0;" vertex="1" parent="1">
          <mxGeometry x="149.8" y="370" width="99.8" height="30" as="geometry" />
        </mxCell>
        <mxCell id="_jDFj12-EfxpkDhz6urm-36" value="" style="shape=image;verticalLabelPosition=bottom;labelBackgroundColor=default;verticalAlign=top;aspect=fixed;imageAspect=0;image=https://bcgov.github.io/common-service-showcase/assets/images/sam.svg;" vertex="1" parent="1">
          <mxGeometry x="644.1" y="466" width="45" height="44" as="geometry" />
        </mxCell>
        <mxCell id="_jDFj12-EfxpkDhz6urm-37" value="Document Generation Service" style="text;html=1;strokeColor=none;fillColor=none;align=center;verticalAlign=middle;whiteSpace=wrap;rounded=0;" vertex="1" parent="1">
          <mxGeometry x="637" y="520" width="60" height="30" as="geometry" />
        </mxCell>
        <mxCell id="_jDFj12-EfxpkDhz6urm-38" value="" style="endArrow=classic;startArrow=classic;html=1;rounded=0;exitX=1;exitY=0.75;exitDx=0;exitDy=0;" edge="1" parent="1" source="_jDFj12-EfxpkDhz6urm-39">
          <mxGeometry width="50" height="50" relative="1" as="geometry">
            <mxPoint x="550" y="570" as="sourcePoint" />
            <mxPoint x="640" y="490" as="targetPoint" />
          </mxGeometry>
        </mxCell>
        <mxCell id="_jDFj12-EfxpkDhz6urm-40" value="" style="endArrow=classic;startArrow=classic;html=1;rounded=0;exitX=1;exitY=0.75;exitDx=0;exitDy=0;" edge="1" parent="1" source="_jDFj12-EfxpkDhz6urm-25" target="_jDFj12-EfxpkDhz6urm-39">
          <mxGeometry width="50" height="50" relative="1" as="geometry">
            <mxPoint x="377" y="473" as="sourcePoint" />
            <mxPoint x="640" y="490" as="targetPoint" />
          </mxGeometry>
        </mxCell>
        <mxCell id="_jDFj12-EfxpkDhz6urm-39" value="Creating PDF / Word / other versions of the Alerts" style="text;html=1;strokeColor=none;fillColor=none;align=center;verticalAlign=middle;whiteSpace=wrap;rounded=0;" vertex="1" parent="1">
          <mxGeometry x="530" y="500" width="70" height="30" as="geometry" />
        </mxCell>
        <mxCell id="_jDFj12-EfxpkDhz6urm-43" value="" style="endArrow=classic;html=1;rounded=0;entryX=1;entryY=0.625;entryDx=0;entryDy=0;entryPerimeter=0;" edge="1" parent="1" target="_jDFj12-EfxpkDhz6urm-11">
          <mxGeometry width="50" height="50" relative="1" as="geometry">
            <mxPoint x="700" y="490" as="sourcePoint" />
            <mxPoint x="740" y="90" as="targetPoint" />
            <Array as="points">
              <mxPoint x="740" y="490" />
              <mxPoint x="740" y="90" />
            </Array>
          </mxGeometry>
        </mxCell>
        <mxCell id="_jDFj12-EfxpkDhz6urm-44" value="Use service account to authorize Access to API" style="text;html=1;strokeColor=none;fillColor=none;align=center;verticalAlign=middle;whiteSpace=wrap;rounded=0;" vertex="1" parent="1">
          <mxGeometry x="740" y="259" width="60" height="30" as="geometry" />
        </mxCell>
        <mxCell id="_jDFj12-EfxpkDhz6urm-47" value="" style="endArrow=classic;html=1;rounded=0;entryX=0.005;entryY=0.63;entryDx=0;entryDy=0;entryPerimeter=0;" edge="1" parent="1" target="_jDFj12-EfxpkDhz6urm-5">
          <mxGeometry width="50" height="50" relative="1" as="geometry">
            <mxPoint x="700" y="510" as="sourcePoint" />
            <mxPoint x="30" y="590" as="targetPoint" />
            <Array as="points">
              <mxPoint x="750" y="560" />
              <mxPoint x="750" y="630" />
              <mxPoint x="30" y="630" />
              <mxPoint x="30" y="280" />
            </Array>
          </mxGeometry>
        </mxCell>
        <mxCell id="_jDFj12-EfxpkDhz6urm-49" value="All downstream services that&lt;br&gt;&amp;nbsp;need access to alert data use&lt;br&gt;&amp;nbsp;this authN/Z approach" style="whiteSpace=wrap;html=1;shape=mxgraph.basic.oval_callout" vertex="1" parent="1">
          <mxGeometry x="730" y="400" width="210" height="110" as="geometry" />
        </mxCell>
        <mxCell id="_jDFj12-EfxpkDhz6urm-50" value="" style="line;strokeWidth=2;html=1;" vertex="1" parent="1">
          <mxGeometry x="90" y="110" width="360" height="10" as="geometry" />
        </mxCell>
      </root>
    </mxGraphModel>
  </diagram>
</mxfile>
